<svg version="1" xmlns="http://www.w3.org/2000/svg" width="744" height="744" viewBox="0 0 558.000000 558.000000"><path d="M255.1 8.9c-3.6 3.7-6.6 7.2-6.9 7.9-.2.7-.8 1.2-1.4 1.2-1 0-3.8 2.5-3.8 3.5 0 .3-5.1 5.7-11.2 12-6.2 6.3-16.4 16.7-22.5 23-6.2 6.3-11.3 11.7-11.3 12 0 1-2.8 3.5-3.9 3.5-.6 0-1.1.4-1.1.9 0 .6-8 9.1-17.7 19.1-21.6 22-22.3 22.7-22.3 24 0 .5-.5 1-1 1-1 0-8 6.5-8 7.4 0 .2-10.6 11.1-23.5 24.1-12.9 13.1-23.5 24.1-23.5 24.4 0 .4-11 11.9-24.5 25.5C59 212.1 48 223.7 48 224.2c0 .4-.7.8-1.5.8s-1.5.5-1.5 1c0 .6-1.5 2.6-3.2 4.4-1.8 1.8-3.9 4.3-4.7 5.4-.8 1.2-1.8 1.9-2.3 1.6-.4-.3-.8-.1-.8.4 0 .6-7.7 8.7-17 18.1-9.4 9.5-17 17.4-17 17.7 0 .2 5.1 5.6 11.3 11.9 6.1 6.3 16.3 16.7 22.5 23 6.1 6.3 11.2 11.7 11.2 12 0 1 2.8 3.5 3.9 3.5.6 0 1.1.4 1.1 1 0 .5 7.8 8.8 17.4 18.5C77 353.1 84.6 361 84.3 361c-.3 0 .9 1.3 2.6 2.9 1.7 1.6 3.1 3.4 3.1 4 0 .6.5 1.1 1 1.1 1 0 8 6.5 8 7.4 0 .2 10.6 11.1 23.5 24.2 12.9 13 23.5 24 23.5 24.3 0 .4 11 11.9 24.5 25.5 13.5 13.7 24.5 25.3 24.5 25.8 0 .4.7.8 1.5.8s1.5.5 1.5 1c0 1.3 1.1 2.5 25.5 27.3 10.7 10.9 19.5 20 19.5 20.3 0 .9 4.9 5.4 6 5.4.5 0 1 .5 1 1 0 .6 2.7 3.7 5.9 7l5.9 5.9 1.8-2.6c1.1-1.4 2.5-3.1 3.2-3.8.6-.8 1.2-1.7 1.2-2.2 0-.5.9-1.5 2-2.3 1.1-.8 2-2 2-2.8 0-.7 1.1-2.5 2.5-4s2.5-3.1 2.5-3.7c0-.6.9-1.7 2-2.5s2-1.8 2-2.3c0-.7.9-2 3.8-5.2.6-.7 1.2-1.8 1.2-2.4 0-.6.5-1.1 1-1.1.6 0 1-.7 1-1.5s.5-1.5 1-1.5c.6 0 1-.5 1-1 0-1 .8-2.2 3.8-5.5.6-.7 1.2-1.7 1.2-2.2 0-.5.9-1.5 2-2.3 1.1-.8 2-1.8 2-2.2 0-1 4.5-7.9 7-10.5 1.1-1.2 2-2.5 2-2.8 0-.4.6-1.3 1.3-2 2.8-3.2 3.7-4.5 3.7-5.2 0-.5.9-1.5 2-2.3 1.1-.8 2-2 2-2.8 0-.7 1.1-2.5 2.5-4s2.5-3.2 2.5-3.9c0-.6.5-1.3 1.2-1.5.6-.2-5-6.6-12.5-14.2-7.6-7.5-13.7-13.9-13.7-14.2 0-.6-3.1-3.9-21-22.2-8.3-8.3-15-15.4-15-15.7 0-.3-5.1-5.6-11.2-12-19.1-19.4-26.8-27.6-26.8-28.6 0-.5-.5-.9-1.1-.9-1.1 0-3.9-2.4-3.9-3.4 0-.3-5.5-6.2-12.2-13.1-19.8-20.1-25.8-26.4-25.8-26.9 0-.2-7.2-7.7-16-16.6-8.8-8.9-16-16.6-16-17.2 0-1.2.6-1.9 17.3-18.8 8.1-8.3 14.7-15.3 14.7-15.5 0-.3 5.1-5.7 11.3-12 19.4-19.9 24.7-25.4 24.7-26 0-1 2.8-3.5 3.9-3.5.6 0 1.1-.4 1.1-.9s6.1-7.2 13.5-14.8c7.4-7.6 16.4-16.8 20-20.5 3.6-3.7 6.5-6.9 6.5-7.2 0-.2 8.1-8.6 18-18.7 9.9-10 18-18.5 18-18.9 0-.4 6.2-6.9 13.7-14.5 7.5-7.6 13.2-14 12.5-14.3-.7-.2-1.2-.8-1.2-1.4 0-.5-.6-1.6-1.2-2.3-3-3.3-3.8-4.5-3.8-5.5 0-.5-.4-1-1-1-.5 0-1-.7-1-1.5s-.4-1.5-1-1.5c-.5 0-1-.5-1-1.1 0-.6-.6-1.7-1.2-2.4-2.9-3.2-3.8-4.5-3.8-5.2 0-.5-.9-1.5-2-2.3-1.1-.8-2-1.9-2-2.5 0-.6-1.1-2.2-2.5-3.7s-2.5-3.3-2.5-4c0-.8-.9-2-2-2.8-1.1-.8-2-1.8-2-2.3 0-.7-.9-2-3.7-5.2-.7-.7-1.3-1.7-1.3-2.2 0-.5-.9-1.5-2-2.3-1.1-.8-2-2-2-2.8 0-.7-1.1-2.5-2.5-4s-2.5-3.1-2.5-3.7c0-.6-.9-1.7-2-2.5s-2-1.8-2-2.3c0-.5-.6-1.5-1.2-2.2-3-3.3-3.8-4.5-3.8-5.5 0-.5-.4-1-1-1-.5 0-1-.7-1-1.5s-.4-1.5-1-1.5c-.5 0-1-.5-1-1 0-.6-.5-1.6-1-2.3-.6-.7-2-2.4-3.3-3.8l-2.2-2.6-6.4 6.6z"/><path d="M282.4 308c.3 2.3 1.3 6 2.1 8.3.8 2.3 1.5 5.4 1.5 6.9 0 1.6.5 2.8 1 2.8.6 0 1 1.6 1 3.5s.5 3.5 1 3.5c.6 0 1 1.2 1 2.7 0 1.6 1.1 5.9 2.5 9.8 1.3 3.8 2.5 8.7 2.5 10.7 0 2.1.5 3.8 1 3.8.6 0 1 1.6 1 3.5s.5 3.5 1 3.5c.6 0 1 1.3 1 2.8 0 1.5.4 3.2.9 3.8 1 1 3 8.8 3.8 14.6.3 2.1.9 3.8 1.4 3.8.5 0 .9 1.3.9 3 0 1.6.5 3 1 3 .6 0 1 .6 1 1.2 0 1 11 1.4 50.8 1.6 98.9.6 130.7 1 132.5 1.7.9.4 3 .2 4.6-.5 2.2-.9 3.5-.9 5 0 1.5.8 2.7.8 4.1 0 1.1-.6 2.6-.7 3.3-.3.6.4 12.1.8 25.5.8l24.2.1v-48.3c0-47.6 0-48.3-2-48.3-1.1 0-2 .4-2 1 0 .5-1.1 1-2.5 1s-2.5-.5-2.5-1c0-.6-1.2-1-2.6-1-1.4 0-2.3.4-1.9 1 .3.6-.1 1-.9 1-.9 0-1.6-.5-1.6-1 0-.6-1.3-1-3-1-1.6 0-3 .4-3 1 0 .5-.7 1-1.5 1s-1.5-.5-1.5-1c0-.6-1.3-1-3-1-1.6 0-3 .4-3 1 0 .5-.7 1-1.5 1s-1.5-.5-1.5-1c0-.6-3.5-1-8.6-1-5.4 0-8.3.4-7.9 1 .3.6-.3 1-1.4 1-1.2 0-2.1-.5-2.1-1 0-.6-1.8-1-4.1-1-2.4 0-3.8.4-3.4 1 .3.5.1 1-.4 1-.6 0-1.1-.5-1.1-1 0-.7-20.8-1-60.4-1-47.4 0-60.5-.3-60.9-1.3-.4-1-.6-1-.6 0-.1 1-3.5 1.3-13.5 1.3-9.8 0-13.6-.3-14-1.3-.5-1-.7-1-1.2 0-.7 1.5-6.4 1.8-6.4.3 0-.6-.7-1-1.5-1s-1.5.4-1.5 1c0 .5-1.1 1-2.5 1s-2.5-.5-2.5-1c0-.6-.7-1-1.5-1s-1.5.4-1.5 1c0 .5-.5 1-1.1 1-.5 0-.7-.5-.4-1 .3-.6.1-1-.4-1-.6 0-1.1.4-1.1 1 0 .5-1.1 1-2.5 1s-2.5-.5-2.5-1c0-.6-.9-1-2-1s-2 .4-2 1c0 1.4-4.7 1.2-5.4-.3-.5-1-.7-1-1.2 0-.7 1.5-6.4 1.8-6.4.3 0-.6-1.6-1-3.6-1-2.1 0-3.3.4-2.9 1 .3.5-.1 1-.9 1-.9 0-1.6-.5-1.6-1 0-1.4-4.7-1.2-5.4.2-.5 1-.7 1-1.2 0-.3-.6-1.5-1.2-2.6-1.2-1.8 0-2 .4-1.4 4z"/></svg>